<svg xmlns="http://www.w3.org/2000/svg" width="16" height="16" viewBox="0 0 16 16"><g fill="#5B6071"><path d="M14.202.15c-.688-.008-1.357.397-2.271.95l.733 1.295a14.88 14.88 0 0 1 1.802-1.122l.07-.036-.07.036c-.192.104-.522.568-1.452 1.287.738.116 1.755.098 2.696.16.494-1.082.054-1.706.054-1.706S15.19.164 14.202.15z"/><path d="M10.055 4.57c-.259.243-.515.492-.771.747L8.58 3.593c.01-.008.68-.668 3.431-2.52l.653 1.324c-.286.205-.572.422-.858.65l-.052.042a26.5 26.5 0 0 0-.868.728 32.24 32.24 0 0 0-.83.753zm2.995-2.028c.738.116 1.724.097 2.666.158a3.403 3.403 0 0 1-.17.327 3.676 3.676 0 0 1-.299.424 8.64 8.64 0 0 1-.691.754c-.272.265-.704.547-1.002.781a9.28 9.28 0 0 1-.29.219c-.357.25-.706.402-1.44.502L9.88 5.5c1.057-1.217 2.914-2.76 3.17-2.958z" opacity=".9"/><path d="M4.328 11.42l.097-.128.764.085c.951.321 2.882-.117 2.907-.129-.13.669-1.412.954-2.412 1.083.633.151 1.168.149 1.335.3-.557.69-1.636.576-2.979.268.264.268-.155.416-.188.707-.155-.317-.328-.604-.583-.75.236-.327.34-.471.458-.63l.074-.102.007-.01a84 84 0 0 1 .52-.695zm-.773-1.825l.023-.046c.444 1.034.666 1.551.665 1.552l-.128.165c-.186.242-.367.48-.543.713l-.04.053c-.048.064-.098.117-.144.19-1.324 2.166-1.608 2.673-1.777 2.935-.092.12-.787.478-.992.483.559-1.185 1.191-2.21 1.897-3.075-.39-.147-.708-.128-1.446-.053.528-.174 1.046-.313 1.504-.246-.14-.052-.493-.218-.922-.65.449.221.847.366 1.154.38.051-.599-.434-.753-.7-1.987 0-.004.754.155.978.558.005-.015.269-.557.471-.972z" opacity=".65"/><path d="M4.922 10.239c-.05.063-.102.127-.15.19-.18.225-.355.449-.525.67l-.669-1.55c2.31-4.283 4.732-5.75 5-5.97.012-.01.248.568.707 1.736l-.026.026a43.632 43.632 0 0 0-1.513 1.58 53.993 53.993 0 0 0-1.454 1.652 63.06 63.06 0 0 0-1.37 1.666zm-.482 1.065c.177-.232 4.07-4.593 5.393-5.805 1.322-1.213 1.973.213 1.972.213l.123.008.702.078-.702-.078c.36.02.814.003 1.089-.06a.926.926 0 0 0 .107-.03c-.018.042-.048.1-.09.171-.03.047-.065.101-.108.16-.013.021-.029.042-.044.063a6.123 6.123 0 0 1-.511.583l-.104.101a2.372 2.372 0 0 1-.85.48 3.963 3.963 0 0 1-.813.166l.046.003c.062.005.123.01.183.011.444.014.831-.063 1.073-.131a3.079 3.079 0 0 1-2 .926c.05.004.475.35 1.592.309-.865 1.807-4.462 3.068-5.328 3.1-.498.017-1.742-.206-1.73-.268z" opacity=".75"/></g></svg>