<svg xmlns="http://www.w3.org/2000/svg" width="13" height="15" viewBox="0 0 13 15"><path fill="#585E6F" d="M11.53 6.899c-.096-.175-.111-.5-.733-1.207-.012-.137-.001-.156.447-.415L12.73 3.9c.284-.375.216-.948.271-1.775l-.017-.193c-.05-.583-.206-1.058-.978-1.42C11.548.19 10.47.026 9.285 0c-.983.086-2.288.314-3.868.942-.434.324-1.052.67-1.607.989l.152.208a.383.383 0 0 0 .148-.06c.063-.005.098.024.104.084l.098-.057.05-.003.002.048c.003.048-.341.324-1.038.83l.055.09-.05.002-.107-.038c.003.03-.046.05-.147.059l.006.054.115.13a.412.412 0 0 1-.156-.032c-.225.02-.445.187-.662.503l.055.089c.188-.179.298-.268.33-.271l.011.146a.468.468 0 0 0-.147.06l.215.225c.228-.253.48-.47.755-.651.136.035.208.08.211.127l.104-.008c.747-.569 1.057-.721 1.79-.974l.008.101c-.136.208-.16.165-.208.17a.332.332 0 0 0 .072.188c.012.128-.32.966-.994 2.56-1.53 3.708-2.77 6.032-3.815 7.805a.63.63 0 0 0 .276.437c.258-.062.42-.127.49-.19l.054-.006.009.101.095-.009c-.018.065.133-.012.2-.018l-.301.197c.009.098.115.173-.001.379-.104.122-.069.356-.187.745l.003.048.095-.009c.417-.479.679-.742.896-1.2 1.215-.367 2.465-.901 3.108-1.256.645-.056.865-.263 1.2-.552L6.7 11.93l-.243.074-.055.006-.006-.053c.475-.075.674.02.856-.129.923-.732 1.742-1.251 2.214-1.558.969-.731 1.77-1.665 2.056-2.358.309-.523.11-.686.01-1.013zM2.967 3.442l-.05.003-.008-.092.2-.018.003.048a.378.378 0 0 0-.145.06zm-.975 10.029a.604.604 0 0 0-.31-.066l-.011-.145c-.006-.057.026-.096.095-.11.064-.006.102.041.107.136.168-.21.26-.318.278-.32l.107.044c-.035.297-.124.449-.266.46zM12.41 2.264c-.05.006-.148-.152-.29-.464l-.008-.092c.092-.01.188.145.29.464l.008.092zm-.139-1.11l-.04.098-1.415-.606c.943.032 1.429.202 1.455.508zM6.297 6.43l-.2.018-.008-.092.2-.018.008.092zm-.113-3.171l.012.145c-.047.003-.107.075-.183.212l-.008-.102c.09-.11.136-.193.13-.252l.049-.003zm-.444 1.02l.026.193-.074.003-.026-.193.074-.003zm-.245.363l.096-.009c-.009.16-.052.247-.13.253l-.05.003c.061-.107.09-.19.084-.247zm-.11.5l.003.047-.09.155-.095.009-.003-.048c.096-.008.14-.06.13-.157l.056-.006zm-.215.46l-.03.245-.05.003-.02-.241.1-.006zm-1.624 4.746c-.064.333-.133.503-.206.509l-.003-.048c-.017-.163.052-.318.209-.46zm-.29.664l.003.047c.007.066-.025.104-.095.107l-.003-.047c-.006-.057.025-.093.095-.107zm.055 1.362l.006.054a.383.383 0 0 0-.147.06l-.096.008c-.006-.05.026-.09.087-.107l.15-.015zm2.642-.473c-.915.327-1.369.53-1.36.61-.813.33-1.348.574-1.606.726-.06.006-.147-.018-.263-.072-.014-.17.06-.306.22-.416a.833.833 0 0 1 .408.065c.15-.08.413-.17.787-.264l-.009-.102-.3.027c.037-.053.326-.193.87-.42l.15-.014.003.047c-.257.024-.399.102-.43.241.005.063.04.09.103.084.194-.125.29-.2.287-.22.367-.072 1.383-.62 3.046-1.64l.009.093c.003.044-.14.17-.425.383-.845.429-1.343.72-1.49.872zm-.437-.306c.07-.006.107.02.11.083-.119.012-.347.113-.68.31l-.05.002-.005-.098a.974.974 0 0 0 .625-.297zM7.878 9.43c-.949.64-1.471.95-1.546.957-1.51.853-2.103 1.029-2.468 1.062l-.055.005c.046-.175.65-1.295 1.952-3.955.572-.05.915-.088 2.117-.42l.522-.073c.622-.056.82-.086 1.126.212l.018.193c-.229.681-.212.81-.484 1.104l-1.182.915zM6.514 7.206l.205-.027.003.072-.205.028-.003-.073zm3.035-.527c.138.068.21.128.217.181l.002.048c-.133.012-.257-.06-.37-.214l.15-.015zm.257-2.374c-.133.163-.497.443-1.093.836-.197.018-.93.31-2.196.88a.391.391 0 0 0-.203-.035l-.008-.093c-.015-.187.066-.422.245-.708.099-.535.206-.841.324-.916l1.056-2.442c-.011-.152.215-.268.677-.348l.15-.015.012.14c.455-.072.738-.114.848-.122.839-.075 1.276.1 1.31.52l.096-.009-.02-.247.104-.009c.246.14.379.31.396.51.012.136-.06.306-.214.508-.063.006-.101-.042-.107-.137l-.104.009-.023.297c-.425.655-.735.991-.926 1.009-.173.247-.28.369-.324.372zm.44 1.627l-.012-.146.096-.009.21.128c.01.069-.02.105-.086.11-.087-.059-.156-.086-.208-.083zm1.038 1.02l-.046.012.003.003a.1.1 0 0 0-.029.006l-.07.057-.017-.196c.093.038.148.08.16.119zm-.095.324l-.009-.057.122-.043.008.056-.121.044z"/></svg>