<svg xmlns="http://www.w3.org/2000/svg" width="16" height="14" viewBox="0 0 16 14"><g fill="none" fill-rule="evenodd"><path fill="#585E6F" d="M1 0h14a1 1 0 0 1 1 1v12a1 1 0 0 1-1 1H1a1 1 0 0 1-1-1V1a1 1 0 0 1 1-1zm.475 2.108a.625.625 0 1 0 0-1.25.625.625 0 0 0 0 1.25zm2 0a.625.625 0 1 0 0-1.25.625.625 0 0 0 0 1.25zm2 0a.625.625 0 1 0 0-1.25.625.625 0 0 0 0 1.25zM1.995 6l3.061 1.515h-.282l-2.779 1.35v1.292l3.906-2.011V6.78L1.995 4.818V6zm8.936 3.957V8.78H7v1.178h3.93z" opacity=".4"/><path fill="#5A5F6F" d="M1.475 2.108a.625.625 0 1 1 0-1.25.625.625 0 0 1 0 1.25zm2 0a.625.625 0 1 1 0-1.25.625.625 0 0 1 0 1.25zm2 0a.625.625 0 1 1 0-1.25.625.625 0 0 1 0 1.25z" opacity=".9"/><path fill="#5A5F6F" d="M1.995 6V4.819L5.901 6.78v1.366l-3.906 2.01v-1.29l2.78-1.35h.281L1.995 6zm8.936 3.958H7V8.78h3.93"/></g></svg>