<svg xmlns="http://www.w3.org/2000/svg" width="14" height="16" viewBox="0 0 14 16"><g fill="#585E6F" fill-rule="evenodd"><path d="M9.127 6.727l-4.22 2.641a2.5 2.5 0 0 1 4.134-2.812l-.06.036a.9.9 0 0 1 .146.135zm2.177-1.273a5 5 0 1 0-8.54 5.203L.32 12.144a1.59 1.59 0 0 1-.32-.957V4.77c0-.565.3-1.088.789-1.373L6.145.273a1.59 1.59 0 0 1 1.59-.006l5.466 3.132c.237.136.43.328.568.553l-2.465 1.502z"/><path d="M2.645 10.459A4.998 4.998 0 0 0 7 13a4.997 4.997 0 0 0 4.266-2.39l2.41 1.474c-.122.222-.159.291-.383.421L7.628 15.79c-.427.248-.95.246-1.376-.005L.698 12.507a1.415 1.415 0 0 1-.572-.644l2.52-1.404zM7 10.5a2.5 2.5 0 0 1-2.193-1.3L7 8l2.139 1.296A2.499 2.499 0 0 1 7 10.5z" opacity=".75"/><path d="M13.297 7.646l.092-.784h-.829l-.09.784h-.592l-.043.615h.563l-.084.72h.827l.084-.72h.436l.043-.615h-.407zm-2 0l.092-.784h-.829l-.09.784h-.592l-.043.615h.563l-.084.72h.827l.084-.72h.436l.043-.615h-.407zm2.373-3.863c.116.21.33.663.33.913v6.565c0 .25-.214.618-.33.828L7 8l6.67-4.217z" opacity=".6"/></g></svg>