<svg xmlns="http://www.w3.org/2000/svg" width="14" height="14" viewBox="0 0 14 14"><g fill="#5A5F6F" fill-rule="evenodd"><path d="M12.166 9.857a5.902 5.902 0 0 0-9.95-6.314c-.202.28 2.423-.193 3.105.383 1.317 1.112 2.095 4.687 3.133 5.769.692.72 1.93.775 3.712.162z" opacity=".4"/><path d="M7 12.902a5.9 5.9 0 0 0 5.104-2.937c.179-.307-2.131.945-3.553-.3C7.118 8.412 6.567 4.657 5.04 3.833a4.154 4.154 0 0 0-2.703-.45A5.902 5.902 0 0 0 7 12.903z" opacity=".3"/><path d="M7 9.951c.551 0 1.067-.151 1.508-.414C7.503 8.497 7 7.652 7 7c0-1.63-1.31-2.647-1.408-2.594A2.95 2.95 0 0 0 7 9.951z" opacity=".4"/><path d="M8.699 9.473a3 3 0 1 0-3.053-5.15C5.585 4.352 6.494 5.486 7 7c.328.98 1.216 2.805 1.699 2.473z" opacity=".5"/><path d="M4.991 9.067c-.014-.625.46-1.468 1.423-2.529-.155-.966-.55-1.574-.988-1.953a2.88 2.88 0 0 0-.435 4.482zm1.182.695a2.883 2.883 0 0 0 1.834-.06C7.392 9.152 6.88 8.378 6.59 7.36c-.505.64-.645 1.44-.418 2.4zM1.83 4.478a5.75 5.75 0 0 0 9.61 6.174 3.717 3.717 0 0 1-1.887-.074 3.99 3.99 0 0 1-.48-.18 3.98 3.98 0 0 1-4.73-6.362 1.981 1.981 0 0 0-.431-.056c-.338 0-1.39-.127-2.082.498zM3.127 2.75c.446-.12.883-.057 1.31.187.254.145.511.308.767.51a3.98 3.98 0 0 1 4.777 6.19c.266.023.55.012.851-.033.726-.309 1.286-.63 1.68-.962A5.75 5.75 0 0 0 3.127 2.75zM6.04 4.282c.517.651 1.009 1.57 1.435 2.943.297.955.742 1.628 1.336 2.018A2.882 2.882 0 0 0 6.04 4.281zM7 14A7 7 0 1 1 7 0a7 7 0 0 1 0 14z"/></g></svg>