<svg xmlns="http://www.w3.org/2000/svg" width="17" height="14" viewBox="0 0 17 14"><path fill="#585E6F" d="M7.479 1.57c.018.081-.027.154-.17.226-.19-.108-.594-.154-.936-.126-.36.036-.537.114-.492.368.054.253.276.42.897.365 1.519-.135 1.488-1.256 3.726-1.455 1.745-.154 2.47.472 2.605 1.134.107.516-.122 1.21-1.39 1.328-1.123.1-1.678-.409-1.75-.726-.036-.154.063-.398.603-.462.054.245.203.518.923.455.521-.046.633-.274.57-.564-.063-.308-.216-.352-1.088-.28-1.772.155-2.06 1.193-3.58 1.329-1.078.09-2.262-.39-2.388-.98-.045-.217.161-1.077 1.303-1.176.603-.055 1.122.328 1.167.564zM1.446 7.415c-.494.634-.564 1.613-.52 2.338.046.725.484 1.384 1.024 1.837.584.453 1.213.59 1.933.453.27-.045.584-.18.854-.271-.585 0-1.04-.365-1.535-.773-.54-.408-.83-.843-.92-1.522-.135-.635-.03-1.264.33-1.762.405-.498.821-.655 1.495-.745.675-.046 1.26.136 1.843.543-.134-.18-.314-.317-.494-.498-.593-.408-1.223-.589-1.987-.408-.72.136-1.537.173-2.023.808zm8.047-3.326c-1.888 0-3.478.081-4.692-.19-1.303-.318-2.051-.68-2.051-1.133 0-.181.09-.363.36-.544-.81.317-1.26.59-1.26.997.046.453 1.027 1.043 2.51 1.405 1.394.362 2.878.531 5.036.531 2.203 0 4.025-.164 5.418-.526 1.484-.363 2.168-.957 2.168-1.41 0-.317-.315-.634-.899-.86.135.09.225.226.225.407 0 .453-.675.815-2.023 1.132-1.259.272-2.86.19-4.792.19zM9.334 6.1c-4.964 0-7.169-1.16-7.393-1.523a13.027 13.027 0 0 0 1.483 4.385c.54.815 1.079 1.54 1.618 2.31.225.453.272 1.244.362 1.697.36.498 1.998 1.033 3.999 1.021 2.001-.01 3.621-.454 3.981-.952.135-.453.29-1.313.514-1.766.54-.77 1.08-1.495 1.619-2.31.719-1.314 1.213-2.8 1.483-4.385-.288.408-2.701 1.523-7.666 1.523z"/></svg>