<svg xmlns="http://www.w3.org/2000/svg" width="14" height="15" viewBox="0 0 14 15"><g fill="none" fill-rule="evenodd"><path fill="#585E6F" d="M1 0h12a1 1 0 0 1 1 1v13a1 1 0 0 1-1 1H1a1 1 0 0 1-1-1V1a1 1 0 0 1 1-1zm1 4v7h1V4H2zm2 2v3h1V6H4zm2 1.9v1.15h2V7.9H6zM4 10v1.15h4V10H4zm2-4.1v1.15h6V5.9H6zm-2-2v1.15h5V3.9H4zm-2-2v1.15h4V1.9H2zm7 6v1.15h2V7.9H9zm-7 4v1.15h3V11.9H2z" opacity=".4"/><path fill="#6A7182" d="M2 1.9h4v1.15H2V1.9zm7 6h2v1.15H9V7.9zm-7 4h3v1.15H2V11.9z"/><path fill="#585E6F" d="M6 7.9h2v1.15H6V7.9zM4 10h4v1.15H4V10zm2-4.1h6v1.15H6V5.9zm-2-2h5v1.15H4V3.9z" opacity=".8"/><path fill="#585E6F" d="M2 4h1v7H2V4zm2 2h1v3H4V6z" opacity=".57"/></g></svg>