<svg xmlns="http://www.w3.org/2000/svg" width="16" height="13" viewBox="0 0 16 13"><path fill="#585E6F" fill-rule="evenodd" d="M.11 7.019h11.183c.243 0 .563-.08.96-.238-.496-.418-.68-2.45.16-3.061.516 0 1.004.585 1.466 1.754.676-.201 1.383-.171 2.121.09-.226.685-.47 1.18-.73 1.483-.26.303-.832.46-1.715.472-1.508 3.176-4.023 3.934-5.008 4.407-.984.473-2.347.975-4.032.984-1.684.009-2.902-1.072-3.825-2.306-.616-.822-.81-2.017-.58-3.585zm3.67-4.21h1.44v1.44H3.78V2.81zm0 2h1.44v1.44H3.78V4.81zm-2 0h1.44v1.44H1.78V4.81zm4 0h1.44v1.44H5.78V4.81zm0-2h1.44v1.44H5.78V2.81zm2 0h1.44v1.44H7.78V2.81zm0 2h1.44v1.44H7.78V4.81zm2 0h1.44v1.44H9.78V4.81zm-2-4h1.44v1.44H7.78V.81z"/></svg>