<svg xmlns="http://www.w3.org/2000/svg" width="16" height="15" viewBox="0 0 16 15"><g fill="none" fill-rule="evenodd"><path fill="#5B6071" d="M1.456 12.829c.232.204.471.352.718.443.37.136.74-.136.838-.136.097 0 .266-.307-.247-.599-.341-.194-.82-.325-1.438-.393 0-.54.282-1.716.847-3.527.289.175.827.341 1.616.498 1.183.236 1.722-.628 1.832-.66.073-.02.208.034.404.162-.012 1.533 1.114 1.56 1.671 1.58.558.02 2.146-.042 2.558-.37.275-.218.373-.53.294-.938l.714.226c0 .123-.096.43-.289.922-.289.738-1.882 1.752-2.393 2.007-.51.254-1.616.68-2.091 1.092-.475.41-3.334.636-4.316.502-.655-.089-.894-.359-.718-.81zM3.575 5.8c.248-.654.46-1.102.636-1.345.265-.364 1.151-.718 1.687-.72.535-.003 2.586.252 3.028.41.442.157 1.767.78 2.052 2.207.286 1.427.232 1.44.286 1.647.035.138.053.438.053.902-.405-.128-.66-.212-.762-.252-.155-.06-.898-.45-2.146-.65-1.247-.201-1.831-.238-2-.12-.113.08-.162.12-.147.12-.145-.178-.253-.272-.323-.281a.493.493 0 0 0-.041-.405c-.11-.216-.77-.783-.82-.818-.05-.034-1.281-.586-1.588-.6l.085-.095z"/><path fill="#5B6071" d="M3.827 3.83c.12-1.78.715-2.7 1.737-3.288C6.587-.047 8.28-.104 8.821.138c.543.242.55 1.07.502 1.678-.031.405-.198.92-.502 1.543l1.499.47c.654.206 1.005.563 1.052 1.072.47-.396 1.942-.82 2.508-.846.565-.027 1.283.003 1.794 1.164.51 1.16.026 2.873 0 2.906-.545.692-1.36 1.166-2.447 1.423-.165.18-.349.236-.55.167a4.155 4.155 0 0 0-.823-.167c.09.828-1.495 2.207-1.712 2.436-.216.23-1.606 1.073-2.176 1.44-.571.369-1.322.572-2.327.95-1.005.38-3.353.322-3.756.322-.403 0-1.592-.552-1.691-1.271-.164-1.35.29-3.116 1.36-5.3-.4-.56-.44-1.449-.345-1.972.063-.349.624-.57 1.684-.661.219-.636.264-.478.936-1.662zm-2.37 8.999c-.177.45.062.72.717.81.982.133 3.84-.092 4.316-.503.475-.411 1.58-.838 2.09-1.092.512-.255 1.958-.923 2.246-1.66.193-.492.29-.8.29-.922l-.714-.227c.078.408-.02.72-.295.939-.411.327-2 .389-2.557.37-.558-.02-1.683-.048-1.672-1.58-.196-.129-.33-.182-.403-.162-.11.032-.65.896-1.833.66-.788-.157-1.327-.324-1.616-.499-.466 1.58-.699 2.64-.699 3.181.617.068 1.097.199 1.438.393.513.292.344.599.247.599-.097 0-.468.272-.838.136a2.284 2.284 0 0 1-.718-.443zM3.574 5.8l-.085.096c.307.013 1.537.565 1.588.6.05.034.71.601.82.817a.493.493 0 0 1 .04.405c.071.01.18.103.324.28-.015 0 .034-.039.147-.118.169-.12.753-.082 2 .119 1.248.2 1.991.59 2.146.65.103.04.357.124.762.252 0-.464-.018-.764-.053-.902-.054-.207 0-.22-.286-1.647-.285-1.427-1.61-2.05-2.052-2.207-.442-.158-2.493-.413-3.028-.41-.536.002-1.422.356-1.687.72-.176.243-.388.691-.636 1.345zM2.083 7.66l.43-.94c.105-.218.105-.323 0-.315-.159.012-.43.169-.557.444-.085.184-.043.455.127.812zm2 .62h.545c.363-.083.489-.163.577-.514.088-.352-.315-.46-.577-.6-.261-.139-1.309-.486-1.422-.4-.075.057-.27.444-.586 1.16.069.183.556.301 1.462.354zm2.945.074c-.168.276-.176.537-.025.784.226.369.195.287.526.411s.475.227 1.29.157c.814-.07.942-.14 1.01-.242.068-.103.332-.553 0-.703a6.675 6.675 0 0 0-1.453-.407c-.26-.033-.71-.033-1.348 0zM5.036 3.467c.196 0 .372-.024.528-.073.235-.072 1.014 0 1.185.073.171.073.85-.073 1.015-.073.165 0 .38-.327.625-.705.244-.379.386-1.38.395-1.58.009-.2-.528-.767-1.02-.82-.492-.053-1.186.253-1.267.34-.081.087-.81.615-.998.814-.19.198-.629 1.184-.737 1.492-.109.309 0 .65.013.46.014-.192.58-1.128.79-1.49.14-.242.477-.589 1.013-1.04.407-.28.887-.388 1.44-.323.83.097.5 1.363.3 1.858-.2.495-.554.725-.655.667-.067-.039-.034-.186.101-.44.31-.396.494-.725.554-.987.09-.393-.134-.76-.425-.775-.29-.015-.885 0-.98.15-.094.149-.397.28-1.048.89-.434.406-.71.927-.829 1.562zm6.453 3.12c.24 1.156.286 1.92.138 2.294.567.114.962.142 1.184.085.333-.085 2.196-.962 2.519-1.789.323-.826.393-.934.323-1.164-.07-.23-.534-.919-1.227-1.049-.693-.13-1.13-.212-1.473 0-.343.213-1.478.706-1.557.877-.08.172.093.338.093.292 0-.046.659-.48.942-.595.284-.115.749-.331 1.249-.345.5-.013 1.201.143 1.346.244.146.1-.07 0-1.21 0-.758 0-1.534.383-2.327 1.15z" opacity=".5"/><path stroke="#5B6071" stroke-width=".5" d="M4.232 8.12c-.139-.12-.009-.572.14-.813.148-.24.172-.383.397-.353.224.03.482.301.289.581a11.69 11.69 0 0 0-.38.585c-.204.08-.353.08-.446 0zM8 9.33c-.14-.12-.01-.572.14-.812.148-.241.172-.384.396-.354.225.03.483.302.29.582a11.69 11.69 0 0 0-.38.585c-.204.08-.353.08-.446 0zM4.79 7.069c-.217.166-.329.334-.336.503-.011.253.069.403.168.253.1-.15.267-.443.261-.568a.232.232 0 0 0-.093-.188zm3.743 1.346c-.207.11-.32.217-.339.323-.029.158-.107.39.029.295.136-.095.367-.108.387-.298a.438.438 0 0 0-.077-.32z"/><path fill="#5B6071" d="M5.036 3.467c.119-.635.395-1.156.829-1.562.65-.61.954-.741 1.048-.89.095-.15.69-.165.98-.15.291.016.515.382.425.775-.06.262-.244.591-.554.987-.135.254-.168.401-.1.44.1.058.454-.172.654-.667.2-.495.53-1.761-.3-1.858-.553-.065-1.033.043-1.44.323-.536.451-.874.798-1.014 1.04-.21.362-.775 1.298-.789 1.49-.013.19-.122-.151-.013-.46.108-.308.548-1.294.737-1.492.189-.199.917-.727.998-.814.08-.087.775-.393 1.267-.34.492.053 1.029.62 1.02.82-.01.2-.151 1.201-.395 1.58-.245.378-.46.705-.625.705-.165 0-.844.146-1.015.073-.171-.073-.95-.145-1.185-.073a1.783 1.783 0 0 1-.528.073zm6.646 3.152a2.886 2.886 0 0 1 1.998-.778c1.138 0 .992-.066 1.05.172.057.239.156.253.216.12s.226-.595.08-.696c-.145-.101-.847-.257-1.346-.244-.5.014-.965.23-1.249.345-.283.114-.942.549-.942.595 0 .046-.173-.12-.093-.292.08-.171 1.214-.664 1.557-.877.343-.212.78-.13 1.473 0 .693.13 1.157.82 1.227 1.05.07.229-.384.313-.707 1.14-.323.826-1.79 1.39-2.123 1.476-.222.057-.502.121-.84.193.149-.373.048-1.108-.301-2.204z"/></g></svg>