<svg xmlns="http://www.w3.org/2000/svg" width="15" height="13" viewBox="0 0 15 13"><g fill="#585E6F"><path d="M14.902 6.21L11.512.394c-.123-.21-.35-.366-.597-.366H4.133c-.246 0-.473.156-.597.366L.146 6.198a.683.683 0 0 0 0 .686l3.39 5.769c.124.21.351.318.597.318h6.782c.246 0 .474-.105.597-.315l3.39-5.778a.648.648 0 0 0 0-.668zm-2.807 2.797a.245.245 0 0 1-.128.208L7.65 11.672a.249.249 0 0 1-.245 0L3.082 9.215a.245.245 0 0 1-.128-.208V4.093c0-.085.052-.164.127-.207L7.4 1.429a.248.248 0 0 1 .244 0l4.323 2.457a.245.245 0 0 1 .128.207v4.914z" opacity=".5"/><path d="M4.572 4.739l2.837-1.616a.232.232 0 0 1 .23 0l2.838 1.616c.07.04.115.115.115.196v3.23a.226.226 0 0 1-.115.197L7.639 9.978a.232.232 0 0 1-.23 0L4.572 8.362a.226.226 0 0 1-.115-.196V4.935c0-.081.044-.156.115-.196" opacity=".7"/><path d="M12.095 9.007a.245.245 0 0 1-.128.208L7.65 11.672a.249.249 0 0 1-.245 0L3.082 9.215a.245.245 0 0 1-.128-.208V4.093c0-.085.052-.164.127-.207L7.4 1.429a.248.248 0 0 1 .244 0l4.323 2.457a.245.245 0 0 1 .128.207v4.914zM4.572 4.74a.226.226 0 0 0-.115.196v3.23c0 .082.044.157.115.197l2.837 1.616c.071.04.159.04.23 0l2.838-1.616a.226.226 0 0 0 .115-.196V4.935a.226.226 0 0 0-.115-.196L7.639 3.123a.232.232 0 0 0-.23 0L4.572 4.74z"/></g></svg>