<svg xmlns="http://www.w3.org/2000/svg" width="12" height="15" viewBox="0 0 12 15"><g fill="none" fill-rule="evenodd"><path fill="#5A5F6F" d="M8 0v3.5a.5.5 0 0 0 .5.5H12L8 0z"/><path stroke="#5A5F6F" stroke-width="1.25" d="M.625.625v13.75h10.75V3.682L8.235.625H.626z"/><path fill="#5A5F6F" d="M7.929 9.38c-.03-.072-.057-.118-.083-.137-.025-.018-.078-.027-.16-.027h-1.88c-.088 0-.149.02-.182.06-.033.04-1.18 1.541-1.18 1.585 0 .133.077.198.23.198a3.137 3.137 0 0 0 .286-.022 3.137 3.137 0 0 1 .309-.022c.41 0 .616.173.616.518 0 .33-.22.495-.66.495a1.004 1.004 0 0 1-.21-.023h-.043l-.528-.077a1.753 1.753 0 0 0-.198-.016 6.34 6.34 0 0 0-.556 0 2.29 2.29 0 0 0-.203.016l-.44.066a4.558 4.558 0 0 1-.259.034 2.177 2.177 0 0 1-.203.01c-.396 0-.594-.164-.594-.495 0-.344.194-.516.583-.516a.456.456 0 0 0 .082-.006c.018-.004.046.002.083.016h.099a.31.31 0 0 0 .275-.154l4.2-5.609c.173-.309.41-.539.835-.539.411 0 .682.18.814.54.181 3.702.297 5.586.348 5.652.078.1.197.1.226.1a.25.25 0 0 0 .077-.011c.403 0 .605.16.605.483 0 .338-.194.506-.583.506h-.127l-2.022.034H7.37c-.403 0-.605-.17-.605-.506 0-.338.217-.506.65-.506.036 0 .08.001.131.005.052.004.362-.004.362-.099a.18.18 0 0 0-.011-.044 1.686 1.686 0 0 0-.033-.088l.065-1.42zm-.234-3.129L6.502 7.748a.2.2 0 0 0 .156.325h1.07a.2.2 0 0 0 .2-.184l.123-1.497a.2.2 0 0 0-.356-.141z" opacity=".7"/></g></svg>