<svg xmlns="http://www.w3.org/2000/svg" width="17" height="16" viewBox="0 0 17 16"><g fill="none" fill-rule="evenodd"><path fill="#5B6071" d="M7.145 12.04a10.54 10.54 0 0 0-.834.108v.833c0 .8-.227 1.082-.739 1.236-.341.102-.594.11-.758.025-.144-.153-.103-.256.121-.307.335-.132.51-.38.524-.745.006-.25.009-.535.01-.857-1.473.397-2.455 1.086-2.455 1.763 0 1.038 2.303 1.88 5.144 1.88s5.145-.842 5.145-1.88c0-.743-1.183-1.5-2.898-1.87 0 .315.003.595.009.84.014.364.189.612.524.744.225.052.265.154.121.307-.164.085-.417.077-.758-.025-.477-.143-.706-.398-.735-1.08v1.394c.048.216.138.364.267.446.195.122.149.202.128.252-.021.05-.238.223-.395.145-.158-.079-.945-.103-.945-1.07v-2.176a11.318 11.318 0 0 0-.531-.01v2.186c0 .967-.788.991-.945 1.07-.157.078-.374-.095-.395-.145-.021-.05-.067-.13.128-.252.13-.082.218-.23.267-.446V12.04zm.9-8c.853-.006 1.47-.041 1.85-.105 1.2-.079 1.925.647 2.175 2.178 0 2.347-1.472 2.892-4.068 2.892-2.595 0-4.067-.918-4.067-2.763 0-1.845 1.336-2.249 1.648-2.307.31-.058 1.18.114 2.461.105zM6.018 7.578c.552 0 1-.557 1-1.244 0-.687-.448-1.244-1-1.244-.553 0-1 .557-1 1.244 0 .687.447 1.244 1 1.244zm3.952-.086c.552 0 1-.557 1-1.244 0-.687-.448-1.244-1-1.244-.553 0-1 .557-1 1.244 0 .687.447 1.244 1 1.244z"/><path fill="#606475" d="M5.975 7.34c-.277 0-.487-.316-.487-.804 0-.488.21-.803.487-.803.276 0 .513.315.513.803 0 .488-.237.803-.513.803zm4.002 0c-.276 0-.487-.316-.487-.804 0-.488.21-.803.487-.803.276 0 .513.315.513.803 0 .488-.237.803-.513.803z" opacity=".4"/><path fill="#5B6071" d="M3.075.042c-.3.815-.3 1.57 0 2.266-1.042.842-1.48 1.943-1.31 3.303C2.02 7.65 3.54 9.942 7.76 9.942c4.222 0 6.004-2.266 5.96-4.595-.044-2.329-1.2-2.798-1.34-3.039.479-1.19.582-1.946.31-2.266-.482.125-1.2.51-2.156 1.155C9.527.925 8.666.797 7.952.816c-.715.018-1.489.145-2.322.381C4.96.512 4.11.127 3.075.042zm2.39 11.732c.005.56.003 1.031-.006 1.416-.014.365-.189.613-.524.745-.224.051-.265.154-.121.307.164.085.417.077.758-.025.512-.154.739-.437.739-1.236v-1.526a17.2 17.2 0 0 1 .834-.63v3.581c-.049.216-.138.364-.267.446-.195.122-.15.202-.128.252.02.05.238.223.395.145.157-.079.945-.103.945-1.07v-3.386l.192-.182c0-.087.023-.13.115-.13.093 0 .246.043.246.13l-.022.001v3.567c0 .967.787.991.945 1.07.157.078.374-.095.395-.145.021-.05.067-.13-.128-.252-.13-.082-.219-.23-.267-.446v-1.393c.029.68.258.936.735 1.079.341.102.594.11.758.025.144-.153.104-.255-.121-.307-.335-.132-.51-.38-.524-.745a54.287 54.287 0 0 1 0-1.956c.007-.537-.193-.871-.6-1.003l.04-.064H6.942c-.374 0-.678.054-.91.165l.035-.282c-.338.183-.72.275-1.143.276-.635.002-1.372-.132-1.917-.731-.545-.599-1.388-.245-1.401-.157-.013.087-.052.173.084.24.136.066.727.877.995 1.374.268.496 1.27.93 2.25.93.21 0 .387-.027.53-.083zm2.351-7.547c1.253 0 1.768-.035 1.546-.105 1.419-.312 2.253.297 2.502 1.828 0 2.347-1.513 2.895-4.109 2.895S3.73 7.925 3.73 6.08c0-1.845 1.313-1.9 1.624-1.957.311-.058.583.105 2.462.105zM3 6.987l.084.463c-.641 0-2.212.131-2.798.318l-.231-.446c.598-.19 2.292-.335 2.945-.335zm13 0l.084.463c-.641 0-2.212.131-2.798.318l-.231-.446c.598-.19 2.292-.335 2.945-.335z" opacity=".5"/></g></svg>