<svg xmlns="http://www.w3.org/2000/svg" xmlns:xlink="http://www.w3.org/1999/xlink" width="16" height="14" viewBox="0 0 16 14"><defs><path id="a" d="M.991 3.505C.095 2.973-.17 2.175.194 1.112.739-.483 2.136.012 2.473.372 2.033.929 1.539 1.973.99 3.505z"/><path id="b" d="M.991 3.505C.095 2.973-.17 2.175.194 1.112.739-.483 2.136.012 2.473.372 2.033.929 1.539 1.973.99 3.505z"/><path id="c" d="M12.08 12a187.11 187.11 0 0 0-.085-4.13c-.049-1.33.585-7.998-4.844-7.866-3.391-.005-5.09 1.832-5.097 5.513V12h10.025z"/><path id="d" d="M.713.533v.984c.11.88.363 1.32.762 1.324.4.003.712-.243.937-.74.125.493.382.74.77.74.582 0 .781-.368.781-.74V.254C3.553.104 3.036.03 2.412.03c-.625 0-1.19.168-1.699.504z"/><path id="e" d="M6.361 6.302c-.593.293-.878.616-.854.97.037.53.27.639.626.718.357.08.63-.356 1.132-.354.502.003.85.283 1.096.283.244 0 .655-.101.722-.523.067-.422-.75-1.044-.882-1.094-.088-.033-.701-.033-1.84 0z"/></defs><g fill="none" fill-rule="evenodd" transform="translate(1 1)"><g transform="matrix(-1 0 0 1 14 1.231)"><use fill="#596071" xlink:href="#a"/><path stroke="#585E6F" d="M.736 3.935C-.37 3.279-.718 2.232-.28.95.03.048.633-.44 1.378-.49c.557-.038 1.154.192 1.46.52l.293.313-.266.338c-.397.503-.872 1.507-1.403 2.991l-.205.571-.521-.31z"/><path fill="#000" d="M1.734 1.458c-.448-.334-.731-.305-.85.085-.177.585.15.826.398.964l.452-1.049z"/></g><g transform="translate(0 1.477)"><use fill="#596071" xlink:href="#b"/><path stroke="#585E6F" d="M.736 3.935C-.37 3.279-.718 2.232-.28.95.03.048.633-.44 1.378-.49c.557-.038 1.154.192 1.46.52l.293.313-.266.338c-.397.503-.872 1.507-1.403 2.991l-.205.571-.521-.31z"/><path fill="#000" d="M1.734 1.458c-.448-.334-.731-.305-.85.085-.177.585.15.826.398.964l.452-1.049z"/></g><use fill="#596071" xlink:href="#c"/><path stroke="#585E6F" d="M12.586 12.5H1.554V5.516C1.56 1.568 3.474-.502 7.139-.495c2.927-.071 4.526 1.629 5.103 4.445.217 1.055.265 1.974.252 3.37-.002.34-.003.43.001.53.033.891.061 2.271.084 4.144l.007.506z"/><g transform="translate(2.549 1.674)"><circle cx="2.051" cy="2.326" r="1.8" fill="#83899A"/><ellipse cx="2.01" cy="2.657" fill="#333849" rx="1" ry="1"/></g><g transform="translate(7.549 1.674)"><circle cx="2.051" cy="2.226" r="2" fill="#83899A"/><ellipse cx="2.01" cy="2.657" fill="#333849" rx="1" ry="1"/></g><g transform="translate(5.087 7.682)"><use fill="#596071" xlink:href="#d"/><path stroke="#363B4C" stroke-width=".5" d="M2.371 2.648c-.238.293-.54.446-.898.443-.57-.005-.885-.553-1.01-1.574V.4L.575.325a3.263 3.263 0 0 1 1.837-.546c.651 0 1.197.08 1.637.24l.164.06v2.022c0 .575-.367.99-1.031.99a.919.919 0 0 1-.81-.443zM2.353.03c-.124 1.4-.166 2.36-.124 2.88"/></g><use fill="#363B4C" xlink:href="#e"/><path stroke="#363C4C" stroke-width=".75" d="M6.35 5.927c1.283-.037 1.82-.037 1.983.024.44.166 1.21.944 1.12 1.504-.091.574-.572.84-1.092.84a.966.966 0 0 1-.33-.066c-.06-.022-.285-.112-.26-.102a1.36 1.36 0 0 0-.508-.116c-.116 0-.215.035-.393.135-.245.136-.23.128-.328.166a.829.829 0 0 1-.49.044c-.585-.13-.874-.408-.919-1.059-.037-.542.347-.979 1.063-1.331l.154-.039z"/><path fill="#343A4A" d="M7.728 6.795c.708 0 1.359-.402 1.359-.81 0-.408-.651-.667-1.359-.667-.707 0-1.527.344-1.527.752 0 .408.82.725 1.527.725z"/></g></svg>