<svg xmlns="http://www.w3.org/2000/svg" width="15" height="16" viewBox="0 0 15 16"><g fill="none" fill-rule="evenodd"><path fill="#585E6F" fill-rule="nonzero" d="M5.041 2.043c-.064.281-.488.505-.488.505l-.823.606c.117.021.131.051.131.051l.044-.034-.097-.045.561-.269a6.507 6.507 0 0 1 3.078-.929 5.438 5.438 0 0 1 2.393.484l-.043-.037V2.24s-.085-.159.112-.432a2.069 2.069 0 0 1 1.64-.827 7.906 7.906 0 0 1 1.763.219l-.766.45c-.017-.001-.053.076-.1.198l-.925 1.328-.3.024c.185.054.375.085.564.079.04-.001.089-.052.14-.136l.197-.016s.759 0 1.18.43c.421.431-.337 1.018-.464 1.253-.108.201 0 .946.033 1.157l.016-.022s.427.295.605.692c.086.11.156.224.19.326.062.193-.102.405-.374.618-.19.214-.53.437-1.214.745-.496.465-.479 1.71-.39 2.564.038.252.072.413.064.415h-.013c.08.5 2.641-.389 2.639.355.433 1.42-2.495 2.01-2.635 2.383-.337.9-1.829 1.022-1.829 1.022s-.295.313-1.39.587c-1.096.274-2.95-.43-3.204-.43-.252 0 0 0-1.138-.47-.499-.206-.34-1.168-.85-1.458-1.88.44-3.038-1.398-2.924-1.634.173-.361 2.847 0 2.847 0s.337-1.057.337-1.605-.126-1.448-1.053-1.8c-.928-.353-1.096-1.057-1.096-1.449 0-.391.8-1.174.759-1.526-.043-.352-.978-1.911.294-2.075.365-.047.631-.067.826-.071a1.231 1.231 0 0 1-.405-.654c-.095-.382.086-.606.075-.748l-.546-.083c.075-.45.407-.672.998-.668a2.072 2.072 0 0 1 1.64.827c.196.273.589.334.589.334l-.648-.099zm6.073 1.123l.086-.04-.444-.213a6.245 6.245 0 0 0-.916-.501zm-5.543 3.8v.05c-.251-.355-.655-.537-1.312-.88-.1.284-.315.588.035.83.547.377 1.084.156 1.277.051v-.051zm3.888 0v.051c.193.105.73.326 1.277-.051.35-.242.135-.546.036-.83-.658.343-1.062.525-1.313.88v-.05z"/><path fill="#333F4A" fill-rule="nonzero" d="M9.872 1.938c.24-.295.596-1.581 1.379-1.816.27-.08.544-.122.81-.122.976 0 1.553.54 1.558.546l.273.297-.412.075c-.007.001-.821.758-1.105 1.175-.047.07-.06.206-.073.351a.796.796 0 0 0 .03.253c.015.06.029.121.032.183.258.008.876.056 1.055.14a.852.852 0 0 1 .474.532c.168.57-.775 1.203-.793 1.223-.064.106-.09.87.056 1.176.02.042.075.084.146.136.021.017.046.034.072.052.207.145.52.364.52.869 0 .691-.755 1.066-1.36 1.367-.1.05-.195.096-.28.142-.091.049-.41.356-.41.815 0 .215.021 1.24.124 1.95.807-.15 2.202-.34 2.282-.899 0 0 .982.236.693 1.744-.176.923-2.713 2.14-3.514 2.41-.238.467-.533.602-1.784.853-.486.37-1.159.609-2.138.61-.985-.001-1.658-.24-2.144-.61a2.748 2.748 0 0 1-1.856-.941c-1.13-.389-3.257-1.236-3.461-2.3-.29-1.509.944-1.523 1.011-1.564.08.559 1.033.706 2.28 1.002.102-.71-.172-2.04-.172-2.255 0-.459-.32-.766-.41-.815-.086-.046-.18-.092-.28-.142-.606-.301-1.36-.676-1.36-1.367 0-.505.313-.724.52-.87l.072-.05a.49.49 0 0 0 .146-.137c.146-.306.12-1.07.056-1.176-.019-.02-.996-.654-.829-1.223a.852.852 0 0 1 .475-.531c.19-.09.86-.138 1.139-.143.007-.138.076-.28.062-.438-.014-.15-.027-.293-.08-.372A27.959 27.959 0 0 0 1.794.873l-.33-.06.218-.238c.029-.03.926-.826 2.316-.41.782.235 1.14 1.357 1.365 1.637.082-.024.164-.047.247-.068-.032-.826.64-1.478.892-1.506.015.141.176.874.431 1.043C7.007.821 7.258.325 8.25 0c-.212.523-.028.96.06 1.164.675-.57 1.13-.476 1.13-.476s-.392.628-.32 1.114c.118.04.244.087.37.137l.381-.001zm.69.257c.592.268.561.623.717.824-.08-.086.247-.06.387-.084.111-.139.128-.33.147-.53.017-.193.035-.393.147-.556.205-.3.105-.418.372-.53-1.738-.113-1.817.855-1.77.876zm-5.99.068c.047-.022-.031-.99-1.77-.876.267.111.168.23.373.53.111.163.13.363.147.556.018.2.036.39.146.53.141.024.468-.003.387.083.156-.2.126-.555.717-.823zM10.84 9.19c.035-.546.877-.912 1.168-1.068.092-.05.187-.097.284-.146.5-.25 1.016-.51 1.016-.953 0-.347-.532-.746-.6-.888-.187-.39-.512-1.234-.295-1.486.108-.125.398-.547.314-.83a.39.39 0 0 0-.224-.246 1.199 1.199 0 0 0-.508-.09c-.413 0-.576-.031-.812.038-.845.249-1.863.965-2.156 1.18l-.2.13.116-.182c.007-.01.143-.98 1.288-1.453-.417 0-.963-.636-2.731-.637-1.77 0-2.361.546-2.43.637 1.147.472.989 1.443.995 1.453l.117.182-.187-.12c-.306-.225-1.325-.941-2.17-1.19-.235-.07-.387.06-.8.06a1.2 1.2 0 0 0-.507.09.389.389 0 0 0-.225.245c-.083.284.207.706.315.831.217.252.466.906.28 1.295-.068.142-.756.552-.756.974 0 .443.36.587.86.838.096.048.191.096.282.145.292.156.813.631.848 1.177.03.458.023 1.003-.063 1.814.328.117.213.187.566.211l.071-.194c.023-.061 1.01-1.241 1.239-1.59-.19 1.258-.375 1.466-.436 1.919.165 0 1.472-.346 2-.346.519 0 1.898.358 2.117.358-.114-.504-.518-.735-.7-1.941.229.35 1.047 1.665 1.115 1.794.437-.011.39-.06.809-.211-.086-.811-.03-1.343 0-1.8zM4.793 14.8c-.26-.36-.443-.768-.604-1.173-.164-.413-.21-.948 0-1.198.017-.048-2.33-.14-3.132-.74-.167.156-.4 1.393 2.45 1.938-.052.193 1.183 1.134 1.286 1.173zm5.6 0c.103-.039 1.36-1.186 1.309-1.38 2.849-.544 2.36-1.677 2.191-1.833-.8.6-2.551.842-3.053.842.21.25.32.785.157 1.198-.16.405-.344.813-.604 1.173zm-.506-1.681c.112-.38.103-.66-.026-.836-.089-.12-.292-.261-.755-.261H5.87c-.464 0-.667.142-.755.261-.13.175-.138.456-.026.836.202.684.652 1.874 2.508 1.877 1.855-.003 2.088-1.193 2.29-1.877zm-4.316-5.35c-.648.54-1.832-.565-2.064-.803-.5-.514-.338-1.174-.299-1.434-.189-.071-.041-.44-.217-.476 1.422-.32 2.384.545 2.71.895.561.598 1.18.731 1.18.731.01.347-.348.595-.711.61.039.483-.468 1.016-.468 1.016l-.13-.538zm4.086 0c.649.54 1.833-.565 2.065-.803.5-.514.338-1.174.299-1.434.189-.071.041-.44.216-.476-1.421-.32-2.383.545-2.71.895-.56.598-1.178.731-1.178.731-.01.347.347.595.71.61-.039.483.468 1.016.468 1.016l.13-.538zm-4.086-.803v.05c-.251-.355-.655-.537-1.312-.88-.1.284-.315.588.035.83.547.377 1.084.156 1.277.051v-.051zm3.888 0v.05c.251-.355.655-.537 1.313-.88.1.284.314.588-.036.83-.547.377-1.084.156-1.277.051v-.051zm-.768-1.894s-.614.925-1.191.925c-.577 0-1.096-.963-1.096-.963.335.188.81.16 1.096.167.285-.006.856.06 1.19-.13zM7.4 13.42c-.07.23-.152.63-.803.631-.652 0-.81-.4-.881-.63-.04-.128-.037-.223.009-.282.03-.04.102-.088.265-.088h1.137c.162 0 .234.048.265.088.045.06.048.154.009.281zm2.144 0c-.071.23-.153.63-.805.631-.651 0-.81-.4-.88-.63-.04-.128-.037-.223.009-.282.03-.04.102-.088.265-.088H9.27c.162 0 .234.048.265.088.045.06.048.154.009.281z"/><path fill="#494F60" d="M3.072 11.958c-.182 1.004-.182 1.549.09 1.766.228.18.655.253 1.316.253v-.5c-.537 0-.87-.056-.968-.134-.052-.041-.052-.519.09-1.301l-.528-.084zm8.779-.003c.182 1.006.182 1.557-.09 1.774-.223.177-.644.248-1.298.248v-.5c.543 0 .883-.057.986-.14.052-.04.052-.512-.09-1.292l.492-.09z"/></g></svg>