<svg xmlns="http://www.w3.org/2000/svg" width="16" height="11" viewBox="0 0 16 11"><g fill="#5A5F6F" fill-rule="evenodd"><path d="M.375.012h2.074a.15.15 0 0 1 .125.067l3.56 5.34a.15.15 0 0 1 0 .167l-3.56 5.344a.15.15 0 0 1-.125.067H.29a.15.15 0 0 1-.123-.235L3.71 5.586a.15.15 0 0 0 0-.168L.25.245A.15.15 0 0 1 .375.012z" opacity=".6"/><path d="M4.436.015L6.485.012a.15.15 0 0 1 .124.066l7.24 10.685a.15.15 0 0 1-.124.234h-2.19a.15.15 0 0 1-.126-.067L9.161 7.512a.15.15 0 0 0-.25-.001l-2.302 3.42a.15.15 0 0 1-.124.066L4.35 11a.15.15 0 0 1-.124-.235L7.772 5.59a.15.15 0 0 0 .001-.168L4.311.248a.15.15 0 0 1 .125-.233z" opacity=".8"/><path d="M10.231 3.079H16v1.876h-4.607zm1.819 2.9H16v1.936h-2.67z"/></g></svg>