<svg xmlns="http://www.w3.org/2000/svg" width="13" height="15" viewBox="0 0 13 15"><path fill="#5A5F6F" d="M11.458 14.962H1.537c-.85 0-1.537-.638-1.537-1.426V1.426C0 .64.688 0 1.536 0h9.922c.848 0 1.536.639 1.536 1.427v12.109c0 .788-.688 1.426-1.536 1.426zM8.143 6.98v5.925l1.864-.024V6.976c0-3.479-5.074-1.477-5.074-1.477l.01-3.39-1.925.012s-.05 5.407-.04 5.38c5.541-2.138 5.165-.522 5.165-.522zm-.978-3.05h1.921c1.043-1.337 1.482-1.808 1.482-1.808H8.582s-.725.97-1.417 1.808zm-4.094 9.18l1.967-2.12-1.999-1.957.032 4.077z"/></svg>