<svg xmlns="http://www.w3.org/2000/svg" width="14" height="14" viewBox="0 0 14 14"><g fill="#585E6F"><path opacity=".1" d="M.583.615H13.4v12.768H.583z"/><path d="M1.159 1.158H12.79v11.668H1.16V1.158zM.5 14h13a.5.5 0 0 0 .5-.5V.5a.5.5 0 0 0-.5-.5H.5a.5.5 0 0 0-.5.5v13a.5.5 0 0 0 .5.5zm8.536-8.866c0-.051.02-.077.075-.077h.98c.05 0 .075.02.075.077v5.044c0 .05-.012.076-.075.076h-.967c-.063 0-.081-.032-.081-.083V5.134h-.007zm-.068-1.451c0-.41.28-.652.637-.652.38 0 .636.262.636.652 0 .422-.268.652-.649.652-.362 0-.624-.23-.624-.652zm-3.552.55h-.013c-.13.747-.462 2.013-.724 3.004h1.48c-.175-.71-.587-2.257-.743-3.005zM3.93 10.19c-.012.051-.031.064-.094.064H2.92c-.063 0-.075-.019-.063-.096L4.63 3.804c.031-.115.05-.217.063-.53 0-.045.018-.064.05-.064h1.31c.044 0 .063.012.075.064l1.986 6.897c.012.051 0 .083-.05.083H7.026c-.05 0-.08-.013-.093-.057L6.42 8.273H4.423L3.93 10.19z"/></g></svg>