<svg xmlns="http://www.w3.org/2000/svg" xmlns:xlink="http://www.w3.org/1999/xlink" width="14" height="14" viewBox="0 0 14 14"><defs><linearGradient id="a" x1="50%" x2="50%" y1="0%" y2="100%"><stop offset="0%" stop-color="#777D8C" stop-opacity=".7"/><stop offset="100%" stop-color="#808593"/></linearGradient><circle id="b" cx="4" cy="4" r="1"/></defs><g fill="none" fill-rule="evenodd" transform="translate(-1 -1)"><path stroke="#585E6F" d="M2 1.5a.5.5 0 0 0-.5.5v12a.5.5 0 0 0 .5.5h12a.5.5 0 0 0 .5-.5V2a.5.5 0 0 0-.5-.5H2z"/><path fill="url(#a)" d="M2.5 2h11a.5.5 0 0 1 .5.5v8.193l-3.43-3.368L8 10.95 5.868 9.332 2 12.372V2.5a.5.5 0 0 1 .5-.5z"/><path fill="#585E6F" opacity=".4" d="M11 7l-5 7h8V9z"/><use fill="#B4B6BB" xlink:href="#b"/><circle cx="4" cy="4" r="1.5" stroke="#A5A8B0" stroke-opacity=".385"/><path fill="#585E6F" opacity=".8" d="M6 9l6 5H2v-2z"/></g></svg>