<svg xmlns="http://www.w3.org/2000/svg" xmlns:xlink="http://www.w3.org/1999/xlink" width="14" height="14" viewBox="0 0 14 14"><defs><linearGradient id="a" x1="50%" x2="50%" y1="46.108%" y2="7.339%"><stop offset="0%" stop-color="#DCF2FF"/><stop offset="100%" stop-color="#BAE1F8"/></linearGradient><linearGradient id="c" x1="50%" x2="50%" y1="57.877%" y2="100%"><stop offset="0%" stop-color="#7F9EAF"/><stop offset="100%" stop-color="#529126"/></linearGradient><path id="b" d="M2 1h12a1 1 0 0 1 1 1v12a1 1 0 0 1-1 1H2a1 1 0 0 1-1-1V2a1 1 0 0 1 1-1z"/><circle id="d" cx="2" cy="1" r="1"/></defs><g fill="none" fill-rule="evenodd" transform="translate(-1 -1)"><use fill="url(#a)" xlink:href="#b"/><path stroke="url(#c)" d="M2 1.5a.5.5 0 0 0-.5.5v12a.5.5 0 0 0 .5.5h12a.5.5 0 0 0 .5-.5V2a.5.5 0 0 0-.5-.5H2z"/><g transform="translate(2 3)"><path fill="#74AB4C" d="M9 4l-5 7h8V6z"/><use fill="#FFB148" xlink:href="#d"/><circle cx="2" cy="1" r="1.5" stroke="#FFE8C9" stroke-opacity=".557"/><path fill="#97D56A" d="M4 6l6 5H0V9z"/></g></g></svg>