<svg xmlns="http://www.w3.org/2000/svg" width="14" height="13" viewBox="0 0 14 13"><path fill="#585E6F" fill-rule="evenodd" d="M12.828 2.464c.306.854.392 1.786.541 2.679.047.236.33.794.275 1.053-.134.695-.025 1.839.156 2.74.212 1.03-.407 1.947-1.726 1.749-.227-.031-.608.176-.835.26-.157.061-.608.404-.71.556-.275.413-.29 1.29-.816 1.412-.738-.022-1.484.039-2.19-.198-3.162-1.061-1.561-.092-1.561-.092-.903.107-1.805.382-2.723.298-.722-.061-.777-.046-1.028-.809s-.589-1.48-.91-2.214C1.16 9.57.744 8.624 1.065 8.295c.361-.374.189.268.471.313-.063-.007.393-1.358.471-1.511.282-.61.62-1.206 1.153-1.641 1.107-.893 2.417-1.046 3.798-.886.502.054 1.013.1 1.413.39.502.374.863.778 1.6.503.715-.26-.177-.893-.499-1.328-.447-.618-.426-1.068-.772-1.755C8.543 2.074 7.052.493 7.42.25 7.594.134 8.835.188 9.015.318c.377.274.926 1.366 1.114 1.824.424 1.008.785 2.359 1.837 2.977.627.351.613-.287.488-.745-.18-.664-.613-1.4-.723-2.071-.078-.435-.095-.749.47-.657.432.068.494.458.628.817zm-.193 6.015c.102-.069.095-.206.008-.29-.227-.221-.502-.298-.792-.351-.346-.077-.722-.168-1.075-.122-.157.023-.714.145-.385.32.008.008-.3.272-.292.272.259.458.98.581 1.482.635.298.03.803-.304 1.054-.464z"/></svg>