<svg xmlns="http://www.w3.org/2000/svg" width="13" height="16" viewBox="0 0 13 16"><g fill="none"><path fill="#585E6F" d="M5.267 11.984c1.175.11 1.775.094 3.07-.106 0 0 .39.631.866.782-3.488 1.438-7.04-.036-4.339-1.036 0 0-.566.27.403.36zm-.433-1.848c1.32.108 2.363.117 4.167-.158 0 0 .164.616.556.725-4.208 1.255-8.061.08-5.075-1.042 0 0-.668.391.352.475zm5.792 3.416c.943-.34.962-.687.962-.687 1.905 1.285-4.763 3.173-9.936 1.733-2.228-.62 1.154-2.311 1.784-1.785 0 0-.2-.017-.548.072-.333.085-1.037.355-.47.647 1.574.812 6.416.663 8.208.02zm-6.604-5.24c.895.022 2.286.016 3.752-.072 1.197-.072 2.38-.177 2.38-.177s-.403.77-.709.919c-3.103.811-8.824.377-7.06-.78 1.388-.63 2.506-.423 2.506-.423s-2.086.504-.869.533zm6.05 2.955c2.068-.972 1.8-1.9.658-1.708-.28.047-.405.088-.405.088s.206-.487.405-.544c2.261-.642 4 1.893-.73 2.897 0 0 .055-.04.071-.075v-.658zM13 14c-.108 1.799-4.683 2.177-7.661 1.934-1.958-.16-2.314-.66-2.314-.66 1.86.391 4.318.334 7.009-.167C12.308 14.549 13 14 13 14z"/><path fill="#848998" d="M7.566 8s.66-.758.227-1.39c-2.932-2.483 2.391-3.82 2.391-3.82-2.922 1.932-1.995 2.617-1.43 3.333C9.762 7.167 7.566 8 7.566 8zm-.788-4c-1.665 1.71.185 2.644.278 4-1.47-1.247-2.648-2.787-1.924-3.808C6.194 2.692 8.017 2.375 8.142 0c0 0 1.39 1.67-1.364 4z"/></g></svg>