<svg xmlns="http://www.w3.org/2000/svg" width="14" height="14" viewBox="0 0 14 14"><path fill="#585E6F" fill-rule="evenodd" d="M1 0h12a1 1 0 0 1 1 1v12a1 1 0 0 1-1 1H1a1 1 0 0 1-1-1V1a1 1 0 0 1 1-1zm4.804 6.053v5.165s.256.62-.681.62c-.625 0-.96-.245-1.004-.736l-.958.6c.305.85.983 1.288 2.034 1.314 1.05.026 1.69-.573 1.916-1.798V6.053H5.804zm6.089 1.915l.946-.823C12.342 6.382 11.589 6 10.579 6 9.066 6 8.565 7.183 8.565 7.906c0 .724.359 1.488 1.412 2.065s1.532.64 1.52 1.125c-.002.446-.086.759-.916.791-.554.022-1.095-.303-1.624-.973l-1.153.795C8.674 12.569 9.6 13 10.58 13c1.47 0 2.42-.814 2.42-1.995 0-.788-.764-1.5-2.293-2.135-.653-.272-.979-.655-.979-1.148.149-.47.376-.706.68-.706.578-.071 1.072.246 1.485.952z"/></svg>