<svg xmlns="http://www.w3.org/2000/svg" width="14" height="12" viewBox="0 0 14 12"><path fill="#595F70" fill-rule="evenodd" d="M1 0h12a1 1 0 0 1 1 1v10a1 1 0 0 1-1 1H1a1 1 0 0 1-1-1V1a1 1 0 0 1 1-1zm3.42 10.845c-.634-.18-.966-.474-1.235-.865-.268-.39-.402-.864-.402-1.42v-.992c0-.3-.066-.534-.196-.703-.13-.17-.448-.244-.715-.244V5.513c.267 0 .585-.094.715-.262.13-.167.196-.404.196-.71V3.55c0-.557.134-1.03.402-1.419.269-.389.6-.663 1.236-.842l.307.86a.854.854 0 0 0-.498.502c-.094.241-.141.544-.141.908v.992c0 .338-.075.638-.225.9-.15.263-.376.467-.679.613.303.153.53.36.68.623.149.262.224.559.224.891v.991c0 .365.047.668.141.908.095.241.26.409.498.503l-.307.865zm5.158 0c.634-.18.966-.474 1.235-.865.269-.39.403-.864.403-1.42v-.992c0-.3.065-.534.195-.703.13-.17.449-.244.715-.244V5.513c-.266 0-.585-.094-.715-.262-.13-.167-.195-.404-.195-.71V3.55c0-.557-.134-1.03-.403-1.419s-.6-.663-1.235-.842l-.308.86a.854.854 0 0 1 .498.502c.094.241.142.544.142.908v.992c0 .338.075.638.224.9.15.263.376.467.679.613-.303.153-.529.36-.679.623a1.76 1.76 0 0 0-.224.891v.991c0 .365-.048.668-.142.908a.854.854 0 0 1-.498.503l.308.865zM7.865 4.723H6.22V3.336h1.645v1.387zm.215 4.316l-.796 1.553H6.146l.342-1.597V7.711H8.08v1.328z"/></svg>