<svg xmlns="http://www.w3.org/2000/svg" width="14" height="14" viewBox="0 0 14 14"><path fill="#585E6F" fill-rule="evenodd" d="M1 0h12a1 1 0 0 1 1 1v12a1 1 0 0 1-1 1H1a1 1 0 0 1-1-1V1a1 1 0 0 1 1-1zm3.048 7.927v3.775s.182.453-.486.453c-.446 0-.685-.179-.717-.538l-.684.439c.218.621.702.941 1.452.96.75.02 1.206-.419 1.368-1.314V7.927h-.933zm4.347 1.4l.675-.603c-.354-.558-.892-.836-1.612-.836-1.082 0-1.44.864-1.44 1.393s.257 1.088 1.009 1.51c.752.421 1.093.467 1.085.821-.002.327-.062.556-.654.58-.396.015-.782-.222-1.16-.712l-.823.58c.622.63 1.283.945 1.983.945 1.05 0 1.727-.596 1.727-1.46 0-.575-.545-1.095-1.637-1.56-.466-.198-.698-.478-.698-.839.106-.344.268-.516.486-.516.411-.052.764.18 1.059.696zm2.913 1.947l.984 1.657h1.23l-1.568-2.43 1.551-2.378h-1.2l-.949 1.652h-.074l-.958-1.652H9.062l1.57 2.421-1.556 2.387h1.173l.984-1.657h.075z"/></svg>