<svg xmlns="http://www.w3.org/2000/svg" width="16" height="11" viewBox="0 0 16 11"><path fill="#585E6F" d="M14.873 4.012c0-.824.13-1.31.13-2.196 0-1.373-.52-1.816-1.67-1.816h-.845v.971h.26c.585 0 .715.19.715.887 0 .654-.065 1.309-.065 2.07 0 .97.326 1.35.976 1.498v.063c-.65.148-.976.528-.976 1.5 0 .76.065 1.372.065 2.069 0 .717-.151.907-.715.907l-.26.022V11h.845c1.15 0 1.67-.443 1.67-1.816 0-.908-.13-1.372-.13-2.196 0-.443.281-.907 1.127-.95V4.94c-.846-.02-1.127-.485-1.127-.928zM10.36 5.218c-.65-.254-1.246-.519-1.246-.94 0-.318.26-.508.737-.508s1.043.188 1.52.526l.867-1.12c-.542-.4-1.39-.94-2.387-.94-1.474 0-2.493.943-2.493 2.104 0 1.035.921 1.68 1.702 1.975.672.254 1.454.462 1.454.885 0 .316-.26.527-.846.527-.542 0-1.084-.21-1.67-.654l-.867 1.225c.65.527 1.648.886 2.472.886 1.734 0 2.667-.886 2.667-2.048 0-1.161-1.064-1.644-1.91-1.918zM6.193 7.706c-.152 0-.347-.126-.347-.527V.02L2.688 0C1.518 0 .998.443.998 1.816c0 .908.13 1.414.13 2.196 0 .443-.282.907-1.128.95V6.06c.846.02 1.127.485 1.127.928 0 .782-.13 1.246-.13 2.154 0 1.372.52 1.816 1.67 1.816h.845v-.971h-.26c-.542 0-.715-.212-.715-.908 0-.697.065-1.288.065-2.07 0-.97-.326-1.35-.976-1.498v-.064c.65-.148.976-.528.976-1.499 0-.76-.065-1.372-.065-2.069 0-.697.151-.887.715-.887h.585v6.06c0 1.288.456 2.132 1.778 2.132.412 0 .817-.042 1.055-.126l-.217-1.373c-.13.021-.195.021-.26.021z"/></svg>