<svg xmlns="http://www.w3.org/2000/svg" width="16" height="16" viewBox="0 0 16 16"><path fill="#595F70" fill-rule="evenodd" d="M5.154 10.941c1.677-.718 2.374-.833 4.092-1.16-.029-.02-1.523-1.838-2.046-2.913-.331.914-.729 1.546-1.38 2.804-.335.647-.363.718-.666 1.27zm-.61-1.361c.325-.651.886-1.888 1.683-3.711-.579-2.253-.758-3.871-.544-5.062C5.775.293 6.715.003 7.466 0c.75-.003 1.613.707 1.638.963-.293 1.243-.887 1.245-.887 1.245 0-.29-.038-.57-.217-.975-.21-.47-.549-.46-.728-.504-.09.061-.217.131-.248.377-.062.345 0 .374 0 .598 0 .793-.004 1.668.296 2.747a7.39 7.39 0 0 0 .146-.478c.061-.237.923-1.897.97-1.765.014.04.613.564.578.86-.196 1.616-.92 2.352-.954 2.487.495 1.413 1.014 2.021 1.964 2.929.375.358.54.628.988.891.978-.143 2.063-.296 2.814-.287.996.013 1.655.656 1.951.954.145.146.204.32.223.517.004.077-.032.256-.043.301.01-.054-.418-.368-1.218-.63-.63-.205-1.11-.154-2.526 0 1.637.82 2.206.955 2.71.711.125-.061 1.03 0 1.03 0s-.09.414-.153.518c-.082.112-.724.545-.876.586-.798.218-1.99-.245-3.8-1.303-2.024.304-4.576.83-6.357 1.428-1.646 3.186-2.438 4.09-4.21 3.716l-.394-.203c-.16-.093-.13-.318-.148-.507-.081-.854.125-2.067 1.664-3.006.165-.103 1.944-.894 1.944-.711 0 .183-1.203 1.294-1.331 1.4-1.228 1.03-1.55 2.098-.866 2.11.456.008 1.495-1.789 3.119-5.39z"/></svg>