<svg xmlns="http://www.w3.org/2000/svg" width="14" height="14" viewBox="0 0 14 14"><g fill="#585E6F"><path opacity=".1" d="M.583.615H13.4v12.768H.583z"/><path d="M1.159 1.158H12.79v11.668H1.16V1.158zM.5 14h13a.5.5 0 0 0 .5-.5V.5a.5.5 0 0 0-.5-.5H.5a.5.5 0 0 0-.5.5v13a.5.5 0 0 0 .5.5zm8.327-7.722c0 .214.105.364.723.692.914.453 1.2.889 1.2 1.527 0 .955-.711 1.468-1.672 1.468-.507 0-.944-.107-1.195-.257-.04-.017-.046-.047-.046-.095v-.877c0-.06.029-.078.07-.048a2.12 2.12 0 0 0 1.17.352c.46 0 .653-.197.653-.465 0-.215-.134-.406-.722-.716-.828-.406-1.171-.818-1.171-1.504 0-.77.588-1.408 1.608-1.408.5 0 .85.078 1.043.167.046.03.058.078.058.12v.817c0 .048-.03.078-.088.06-.256-.167-.635-.269-1.013-.269-.46 0-.618.239-.618.436zm-4.523-.062c.134.012.24.012.472.012.682 0 1.323-.244 1.323-1.193 0-.758-.46-1.14-1.235-1.14-.233 0-.455.012-.56.018v2.303zM3.301 3.143c.373-.018.926-.03 1.503-.03 1.614 0 2.243.907 2.243 2.065 0 1.515-1.072 2.165-2.388 2.165-.222 0-.298-.012-.455-.012l.007 2.539c0 .048-.018.071-.07.071h-.892c-.046 0-.07-.017-.07-.071l-.006-6.655c0-.042.081-.072.128-.072z"/></g></svg>