<svg xmlns="http://www.w3.org/2000/svg" width="16" height="12" viewBox="0 0 16 12"><path fill="#585E6F" fill-rule="evenodd" d="M8 12c-4.418 0-8-2.686-8-6s3.582-6 8-6 8 2.686 8 6-3.582 6-8 6zM2.986 9l.234-1.26h.587c.372 0 .679-.041.92-.123.24-.082.574-.22.77-.413.166-.159.185-.334.287-.526.102-.191.246-.64.289-.872.104-.562.025-1-.236-1.313-.262-.314-.678-.36-1.248-.36H3.28a.4.4 0 0 0-.393.323L2 9h.986zm1.346-4.082c.375 0 .482.073.607.218.124.144.154.393.089.745-.068.367-.245.719-.44.876-.194.156-.347.235-.745.235H3.36l.413-2.074h.56zm3.946-2.132h-.979l-.948 5.226h1.063l.54-3.225h.485c.25 0 .414.043.49.13.078.087.094.25.05.488l-.425 2.607h.994l.444-2.715c.084-.45.021-.774-.187-.974-.208-.2-.586-.3-1.135-.3h-.575l.183-1.237zM10.98 9l.234-1.26h.658c.372 0 .679-.041.92-.123.24-.082.459-.22.656-.413.165-.159.299-.334.401-.526.102-.191.246-.64.289-.872.104-.562.025-.89-.236-1.203-.262-.314-.678-.47-1.248-.47h-1.38a.4.4 0 0 0-.393.323L9.994 9h.986zm1.274-4.082c.375 0 .625.073.75.218.124.144.154.393.089.745-.068.367-.245.719-.44.876-.194.156-.49.235-.887.235h-.413l.413-2.074h.488z"/></svg>