<svg xmlns="http://www.w3.org/2000/svg" width="16" height="13" viewBox="0 0 16 13"><g fill="none" fill-rule="evenodd"><path fill="#EFCCA3" d="M3.217 2.307C4.05 1.033 4.591.327 4.841.19c.375-.208.938-.173 3.038-.19 1.4-.011 2.462.007 3.187.053 1.565 1.43 2.45 2.882 2.654 4.353.205 1.472.29 2.363.258 2.674-.097.746-.24 1.21-.43 1.391-.188.181-.412.636-.67 1.365-.133.75-.573 1.224-1.32 1.42.931-2.828.183-4.804-2.245-5.93-.355-.48-.774-.72-1.256-.72s-.867.209-1.156.626C4.275 6.525 3.556 8.58 4.746 11.4c-.97-.286-1.545-.808-1.724-1.564-.136-.68-.376-1.135-.721-1.365-.275-.712-.397-1.215-.366-1.508.045-.44.746-1.523.746-2.56 0-.692.179-1.39.536-2.097z"/><path fill="#8C5E53" d="M4.97.073C3.54 2.061 2.793 3.53 2.73 4.483c-.097 1.429-.106 3.106-.372 3.127-.177.014-.618-.632-1.324-1.938C.319 4.997-.026 4.42 0 3.94.04 3.221 2.484.062 4.97.073z"/><path fill="#6D423A" d="M1.44 6.378c-.097-2.167.265-3.684 1.087-4.55-1.02.94-1.635 1.901-1.846 2.88l.76 1.67z"/><path fill="#8C5E53" d="M10.915.073c1.429 1.988 2.175 3.457 2.24 4.41.096 1.429.105 3.106.371 3.127.177.014.618-.632 1.324-1.938.715-.675 1.06-1.252 1.034-1.732-.04-.719-2.484-3.878-4.97-3.867z"/><path fill="#6D423A" d="M14.443 6.378c.098-2.167-.264-3.684-1.086-4.55 1.02.94 1.635 1.901 1.846 2.88l-.76 1.67z"/><g transform="matrix(-1 0 0 1 12.093 3.342)"><path fill="#000" d="M2.433 1.844a1.5 1.5 0 0 0 .079-.477C2.512.612 1.949 0 1.256 0 .562 0 0 .612 0 1.367s.562 1.367 1.256 1.367c.045 0 .09-.002.133-.007a2.139 2.139 0 0 1 1.044-.883z"/><ellipse cx="1.535" cy=".911" fill="#FFF" rx="1" ry="1"/></g><g transform="translate(3.907 3.342)"><path fill="#000" d="M2.433 1.844a1.5 1.5 0 0 0 .079-.477C2.512.612 1.949 0 1.256 0 .562 0 0 .612 0 1.367s.562 1.367 1.256 1.367c.045 0 .09-.002.133-.007a2.139 2.139 0 0 1 1.044-.883z"/><ellipse cx="1.535" cy=".911" fill="#FFF" rx="1" ry="1"/></g><path fill="#8C5E53" d="M7.254 11.933c.247 0 .544-.028.888-.085.652.07 1.096.07 1.332 0a33.8 33.8 0 0 1 2.025-.538c.97-2.863.242-4.857-2.186-5.983-.355-.48-.774-.72-1.256-.72s-.867.209-1.156.626c-2.626 1.293-3.345 3.348-2.155 6.168.745.1 1.382.249 1.91.447.15.057.35.085.598.085.247 0 .544-.028.888-.085.652.07 1.096.07 1.332 0a33.8 33.8 0 0 1 2.025-.538c.314-1.26.446-2.152.396-2.677-.993 1.1-2.272 1.65-3.838 1.65-1.565 0-2.854-.473-3.866-1.42-.022.764.163 1.61.555 2.538.745.1 1.382.249 1.91.447.15.057.35.085.598.085z"/><path fill="#6D423A" d="M11.5 11.31c.432-1.406.532-2.416.3-3.03-.936 1.232-2.187 1.848-3.753 1.848-1.565 0-2.882-.539-3.95-1.617-.023.763.257 1.961.649 2.89.682.17 1.287.355 1.814.553.302.114.798.114 1.487 0 .652.07 1.096.07 1.332 0a97.41 97.41 0 0 0 2.12-.644z"/><path fill="#090806" fill-rule="nonzero" d="M6.635 9.938c.035-.798.785-1.335 1.445-1.334.66.001 1.29.494 1.395 1.334l.726-.016c-.11-.874-.851-1.81-1.82-1.883-.015 0-.178-.843-.225-1.393-.004-.047 1.081-.475.768-.413-.314.062-.903.05-.907.018-.009-.07-.017-.11-.025-.11s-.014.04-.02.108c-.004.034-.419.07-.843 0-.425-.07.657.354.655.397-.025.55-.193 1.396-.209 1.398-.962.081-1.581 1.047-1.617 1.884l.677.01z"/></g></svg>