<svg xmlns="http://www.w3.org/2000/svg" width="16" height="13" viewBox="0 0 16 13"><g fill="#5A5F6F" fill-rule="evenodd"><path d="M3.217 3.307c.833-1.274 1.374-1.98 1.624-2.118C5.216.982 5.901.986 8 .969c1.4-.01 2.434.063 3.102.22 1.541 1.34 2.414 2.747 2.618 4.218.205 1.472.29 2.363.258 2.674-.097.746-.24 1.21-.43 1.391-.188.181-.412.636-.67 1.365-.171.785-.63 1.277-1.379 1.473.97-2.863.242-4.857-2.186-5.983-.355-.48-.774-.72-1.256-.72s-.867.209-1.156.626c-2.626 1.293-3.345 3.348-2.155 6.168-.97-.286-1.545-.808-1.724-1.564-.136-.68-.376-1.135-.721-1.365-.275-.712-.397-1.215-.366-1.508.045-.44.746-1.523.746-2.56 0-.692.179-1.39.536-2.097zM5.35 7.37c.546-.65 1.256-.612 1.256-1.367S6.043 4.636 5.35 4.636c-.694 0-1.256.612-1.256 1.367S4.656 7.37 5.35 7.37zm5.146-.152c-.295-.56-1.256-.612-1.256-1.367s.562-1.367 1.256-1.367c.693 0 1.256.612 1.256 1.367s-.563 1.367-1.256 1.367z"/><path d="M4.97 1.073C3.54 3.061 2.793 4.53 2.73 5.483c-.097 1.429-.106 3.106-.372 3.127-.177.014-.618-.632-1.324-1.938C.319 5.997-.026 5.42 0 4.94c.04-.719 2.484-3.878 4.97-3.867zm5.945 0c1.429 1.988 2.175 3.457 2.24 4.41.096 1.429.105 3.106.371 3.127.177.014.618-.632 1.324-1.938.715-.675 1.06-1.252 1.034-1.732-.04-.719-2.484-3.878-4.97-3.867zM11.5 12.31a33.8 33.8 0 0 0-2.026.538c-.236.07-.68.07-1.332 0-.689.114-1.185.114-1.487 0-.527-.198-1.164-.348-1.91-.447-1.189-2.82-.47-4.875 2.156-6.168.289-.417.674-.626 1.156-.626.482 0 .9.24 1.256.72 2.428 1.126 3.157 3.12 2.186 5.983zm-4.865-1.372c.035-.798.785-1.335 1.445-1.334.66.001 1.29.494 1.395 1.334l.726-.016c-.11-.874-.851-1.81-1.82-1.883-.015 0-.178-.843-.225-1.393-.004-.047 1.081-.475.768-.413-.314.062-.903.05-.907.018-.009-.07-.017-.11-.025-.11s-.014.04-.02.108c-.004.034-.419.07-.843 0-.425-.07.657.354.655.397-.025.55-.193 1.396-.209 1.398-.962.081-1.581 1.047-1.617 1.884l.677.01z" opacity=".6"/></g></svg>