<svg xmlns="http://www.w3.org/2000/svg" width="15" height="15" viewBox="0 0 15 15"><g fill="#585E6F"><path d="M7.34 0a10.33 10.33 0 0 0-1.712.145C4.112.41 3.836.965 3.836 1.99L3.83 3.105H7v.815H2.485c-1.042 0-1.954.62-2.24 1.8C-.082 7.07-.09 7.788.253 9.2.507 10.251.825 11 1.866 11H3.1V9.378c0-1.171 1.023-2.205 2.238-2.205h3.871c.997 0 1.792-.812 1.792-1.803V1.99c0-.962-.82-1.685-1.792-1.845A11.285 11.285 0 0 0 7.341 0zM5.537.89a.604.604 0 0 1 0 1.207.603.603 0 1 1 0-1.207z" opacity=".8"/><path d="M11.916 4v1.645c0 1.212-1.044 2.233-2.234 2.233H5.788C4.81 7.878 4 8.703 4 9.668v3.273c0 .955.843 1.517 1.788 1.79 1.133.328 2.218.388 3.573 0 .9-.256 1.788-.773 1.788-1.79v-1.093H7.767v-.808h5.171c1.039 0 1.426-.603 1.788-1.674.373-1.104.357-2.165 0-3.58C14.469 4.766 14.299 4 13.259 4h-1.343zm-2.459 8.751a.542.542 0 1 1 .003 1.083.542.542 0 0 1-.003-1.083z"/></g></svg>