<svg xmlns="http://www.w3.org/2000/svg" width="14" height="14" viewBox="0 0 14 14"><path fill="#585E6F" d="M1.565 13.86c-.125-1.105-.045-2.353.24-3.744.428-2.086 1.057-3.477 2.14-5.464C5.028 2.666 6.765 1.026 9.282.803 11.8.579 13.79 2.566 13.79 2.566l-.302.447s-.755-.844-2.14-.695c-1.385.149-3.827 1.54-4.205 4.595-.377 3.054 1.12 6.947 1.12 6.947H1.566zM.22 9.967l1.309.1-.227 1.291-1.233-.149.15-1.242zm2.064-2.732L1.1 6.863l.378-1.043 1.158.447-.353.968zM3.92 3.907l-.907-.596.705-.77.882.572-.68.794zM5.707.827l.831-.421.604.67-.83.472-.605-.72zM8.653.009l1.083.05.1.646L8.804.73l-.15-.72zm3.5.77l.83.596-.15.224-.705-.373.025-.447zm-.151 1.913l.68.148v.298l-.68-.074v-.372zm-2.165.322l.705-.174.1.398-.478.372-.327-.596zm-1.033.77l.504.745-.303.522-.73-.795.53-.472zM7.797 5.845l.73.546-.201.82-.856-.72.327-.646zm-.352 2.26L8.4 8.6l.05.82-1.057-.447.05-.87zm.302 3.08h1.107l.479.968-1.334-.075-.252-.894z"/></svg>