<svg xmlns="http://www.w3.org/2000/svg" width="13" height="16" viewBox="0 0 13 16"><path fill="#E25997" fill-rule="evenodd" d="M4.47 11.536a2.799 2.799 0 0 1-.078 1.74 2.961 2.961 0 0 1-.539.867c-.594.671-1.424.925-1.78.711-.385-.23-.192-1.176.497-1.93.741-.81 1.808-1.332 1.808-1.332.029-.02.06-.038.092-.056zM6.593.508c-1.697.623-3.534 1.602-4.855 2.88C.168 4.908-.083 6.23.02 6.783c.286 3.235 2.538 3.095 3.6 4.04l.049.124c-.313.16-2.625 1.563-3.161 2.79-.566 1.294.47 2.03.904 2.155 1.346.388 3.104-.355 3.846-1.5.716-1.105.539-2.703.227-3.413.43-.117.286-.073.922.004 1.795.217 1.772 1.241 1.705 1.726-.068.486-.069.887-.195.967-.126.08-.164.109-.153.168.015.088.073.084.18.065.148-.025 1.182-.62 1.216-1.515.044-1.137-1.215-2.486-3.08-2.453-.768.014-1.166.076-1.515.21a3.662 3.662 0 0 0-.079-.09c-1.153-1.273-3.02-1.736-2.929-3.446.033-.622.273-1.73 4.126-3.716 3.157-1.628 4.84-1.432 5.277-.44.623 1.418-.324 3.097-3.602 3.477-1.249.145-2.144.161-2.307-.025-.173-.197-.198-.205-.263-.169-.104.06-.038.234 0 .337.098.264.5.73 1.185.963.602.205 2.264.525 4.037-.185 1.986-.795 3.366-3.052 2.91-4.9C12.457.077 9.444-.54 6.593.507z"/></svg>