<svg xmlns="http://www.w3.org/2000/svg" width="10" height="16" viewBox="0 0 10 16"><g fill="#5B6071" fill-rule="evenodd"><path d="M9.3 4.234c.323.17.557.354.7.555v1.949-1.755c-.435.438-1.025.77-1.773.995-.678.205-2.7.516-4.386.758-1.098-.156-2.052-.283-2.4-.332A9.52 9.52 0 0 1 0 6.108V4.246v1.82c.158-.123.636-.223 1.433-.302 1.195-.12 5.479-.715 6.794-1.11a6.074 6.074 0 0 0 1.072-.42zm-5.69 7.453c-.999-.141-1.845-.254-2.168-.3A9.52 9.52 0 0 1 0 11.092V9.23v1.82c.158-.122.636-.223 1.433-.302 1.195-.119 5.479-.714 6.794-1.109a6.074 6.074 0 0 0 1.072-.42c.324.169.558.354.701.555v1.915-1.787c-.435.438-1.025.77-1.773.995-.709.214-2.888.545-4.616.79z" opacity=".5"/><path d="M0 7.368a9.408 9.408 0 0 1 1.433-.296c.88-.125 5.673-.755 6.794-1.093.748-.226 1.338-.557 1.773-.995v3.702c-.305.372-.896.69-1.773.952-1.315.395-5.6.99-6.794 1.11-.797.079-1.275.18-1.433.302V7.368zm0 4.918a9.408 9.408 0 0 1 1.433-.296c.88-.125 5.673-.755 6.794-1.093.748-.226 1.338-.557 1.773-.995v3.702c-.305.372-.896.69-1.773.952-1.315.395-5.6.99-6.794 1.11-.797.079-1.275.18-1.433.302v-3.682zm0-9.902a9.408 9.408 0 0 1 1.433-.296c.88-.125 5.673-.755 6.794-1.093C8.975.77 9.565.438 10 0v3.702c-.305.372-.896.69-1.773.953-1.315.394-5.6.99-6.794 1.109-.797.079-1.275.18-1.433.302V2.384z"/></g></svg>