<svg xmlns="http://www.w3.org/2000/svg" xmlns:xlink="http://www.w3.org/1999/xlink" width="16" height="16" viewBox="0 0 16 16"><defs><circle id="a" cx="1.5" cy="1.5" r="1.5"/><circle id="b" cx="14.5" cy="1.5" r="1.5"/></defs><g fill="none" fill-rule="evenodd"><g transform="translate(0 1)"><path stroke="#585E6F" stroke-width="2" d="M1.723 1.387c.786-.5 1.532-.87 2.239-1.11 1.06-.36 3.784-.475 3.472 1.208-.33 3.448 5.771 2.096 6.692.403" opacity=".4"/><use fill="#373D49" xlink:href="#a"/><circle cx="1.5" cy="1.5" r="1" stroke="#585E6F"/><use fill="#373D49" xlink:href="#b"/><circle cx="14.5" cy="1.5" r="1" stroke="#585E6F"/></g><g fill="#585E6F"><path d="M7.011 2v5.628a.5.5 0 1 0 1 0V2a1.009 1.009 0 0 1 .288.25l3.511 4.486a1 1 0 0 1 .144.981l-2.118 5.41h-4.65l-2.117-5.41a1 1 0 0 1 .144-.98l3.51-4.487A.997.997 0 0 1 7.012 2zm.483 7.863a.736.736 0 0 0-.733.729.715.715 0 0 0 .718.723h.051a.736.736 0 0 0 .734-.729.715.715 0 0 0-.719-.723h-.051z"/><path d="M4.5 13h6a.5.5 0 0 1 .5.5v2a.5.5 0 0 1-.5.5h-6a.5.5 0 0 1-.5-.5v-2a.5.5 0 0 1 .5-.5z" opacity=".56"/></g></g></svg>