<svg xmlns="http://www.w3.org/2000/svg" width="14" height="14" viewBox="0 0 14 14"><path fill="#585E6F" d="M1 14h12a1 1 0 0 0 1-1V1a1 1 0 0 0-1-1H1a1 1 0 0 0-1 1v12a1 1 0 0 0 1 1zm7.936-6.416v.584H7.19v4.876H5.926l-.037-4.876H4.074V7h4.862v.584zm3.855-.421l.138.055v.635c0 .35-.01.635-.02.635-.011 0-.118-.056-.24-.122-.457-.259-1.188-.355-1.635-.223a.968.968 0 0 0-.345.208c-.122.117-.147.188-.147.376 0 .203.025.259.193.416.106.102.503.335.888.528.813.401 1.24.629 1.427 1.05.168.376.163 1.004 0 1.36a1.853 1.853 0 0 1-.817.832c-.701.33-1.844.36-2.737.066l-.32-.106V11.46l.254.183c.33.238.756.386 1.203.416.447.03.777-.05.98-.244.127-.116.153-.182.153-.375 0-.371-.204-.4-1.077-.827-.772-.38-1.03-.44-1.26-.775-.507-.737-.355-1.864.326-2.377.579-.442 1.538-.604 2.513-.426.209.04.442.096.523.127z"/></svg>