<svg xmlns="http://www.w3.org/2000/svg" width="13" height="12" viewBox="0 0 13 12"><path fill="#585E6F" d="M.407 11.99l4.66-5.755L0 .03C.13.02.208.008.288.008c.781 0 1.562.008 2.344-.005a.553.553 0 0 1 .482.24c1.052 1.309 2.111 2.604 3.17 3.901.076.092.155.178.242.277C7.651 3.047 8.767 1.693 9.872.325c.18-.225.359-.331.62-.325.823.02 1.646.007 2.508.007-.03.074-.067.143-.108.208a6125.37 6125.37 0 0 1-5.133 6.293c-1.42 1.737-2.847 3.466-4.263 5.209a.651.651 0 0 1-.567.281c-.748-.017-1.497-.005-2.244-.005l-.278-.003z"/></svg>