<svg xmlns="http://www.w3.org/2000/svg" width="14" height="14" viewBox="0 0 14 14"><path fill="#5A5F6F" fill-rule="evenodd" d="M2.453 2.66c.556.139.952.085 1.188-.16.356-.37.941-1.12 2.067-.967.153-1.021.39-1.532.708-1.532.318 0 .639.51.961 1.532.31-.437.556-.621.736-.552.27.102 1.24 2.796.59 4.251-.432.97-.997 1.6-1.694 1.89 1.017.555 1.582 1.246 1.695 2.075.17 1.242-.185 2.029-.25 2.359.41.115.788.05 1.133-.194.517-.367 2.493-1.125 3.027-1.215.533-.09 1.019-.127 1.01.433-.007.56-.436.716-.723.716s-2.16.612-2.737 1.147c-.385.358-1.194.676-2.428.955-.09.203-.332.327-.727.371-.593.067-2.613.28-3.166.22-.554-.058-1.066-.1-.976-.72.06-.412.235-.632.524-.66-.294-.09-.454-.226-.482-.406-.042-.27-.08.625-.208.803-.127.177-.28.828-1.043.725-.762-.103-1.096-.27-1.086-.552.006-.188.117-.433.33-.736-.308.205-.503.205-.584 0-.122-.306-.4-1-.294-1.559.107-.558.72-.983 1.014-1.204-.197-1.073-.12-1.925.232-2.558.351-.634.93-1.162 1.736-1.587-.687-.742-.993-1.328-.918-1.76a3.65 3.65 0 0 1 .365-1.115z"/></svg>