<svg xmlns="http://www.w3.org/2000/svg" xmlns:xlink="http://www.w3.org/1999/xlink" width="13" height="15" viewBox="0 0 13 15"><defs><path id="a" d="M2.5 1h8.744a.5.5 0 0 1 .36.152l3.255 3.362a.5.5 0 0 1 .141.348V15.5a.5.5 0 0 1-.5.5h-12a.5.5 0 0 1-.5-.5v-14a.5.5 0 0 1 .5-.5zM5 1v9a3 3 0 0 0 6 0V1H5z"/></defs><g fill="none" fill-rule="evenodd" transform="translate(-2 -1)"><use fill="#595F70" xlink:href="#a"/><path stroke="#595F70" stroke-width="1.25" d="M2.625 1.625v13.75h11.75V4.913l-3.184-3.288H2.625zm1.75-1.25h7.25V10a3.625 3.625 0 0 1-7.25 0V.375z"/><path fill="#595F70" d="M5 1h6v9a3 3 0 0 1-6 0V1zm1 6v3a2 2 0 1 0 4 0V7H6zm0-6v1h2V1H6zm2 1v1h2V2H8zm0 2v1h2V4H8zM6 3v1h2V3H6zm0 2v1h2V5H6zm2 1v1h2V6H8z" opacity=".54"/><path stroke="#595F70" stroke-width="1.25" d="M6.625 7.625V10a1.375 1.375 0 0 0 2.75 0V7.625h-2.75zm-.625-6h2L7.375 1v1L8 1.375H6L6.625 2V1L6 1.625zm2 1h2L9.375 2v1L10 2.375H8L8.625 3V2L8 2.625zm0 2h2L9.375 4v1L10 4.375H8L8.625 5V4L8 4.625zm-2-1h2L7.375 3v1L8 3.375H6L6.625 4V3L6 3.625zm0 2h2L7.375 5v1L8 5.375H6L6.625 6V5L6 5.625zm2 1h2L9.375 6v1L10 6.375H8L8.625 7V6L8 6.625z"/></g></svg>